<svg xmlns="http://www.w3.org/2000/svg" viewBox="0 0 400 280" fill="none">
  <defs>
    <linearGradient id="bg" x1="0%" y1="0%" x2="100%" y2="100%">
      <stop offset="0%" style="stop-color:#faf6f2"/>
      <stop offset="100%" style="stop-color:#f0e8e4"/>
    </linearGradient>
    <linearGradient id="line" x1="0%" y1="0%" x2="100%" y2="0%">
      <stop offset="0%" style="stop-color:#903950;stop-opacity:0.25"/>
      <stop offset="50%" style="stop-color:#903950;stop-opacity:0.55"/>
      <stop offset="100%" style="stop-color:#903950;stop-opacity:0.25"/>
    </linearGradient>
  </defs>
  <rect width="400" height="280" rx="32" fill="url(#bg)"/>
  <g opacity="0.9">
    <rect x="88" y="64" width="36" height="36" rx="6" stroke="#903950" stroke-width="1.5" fill="#fff" opacity="0.85"/>
    <rect x="132" y="64" width="36" height="36" rx="6" stroke="#903950" stroke-width="1.5" fill="#fff" opacity="0.85"/>
    <rect x="176" y="64" width="36" height="36" rx="6" stroke="#903950" stroke-width="1.5" fill="#fff" opacity="0.85"/>
    <rect x="220" y="64" width="36" height="36" rx="6" stroke="#903950" stroke-width="1.5" fill="#fff" opacity="0.85"/>
    <rect x="264" y="64" width="36" height="36" rx="6" stroke="#903950" stroke-width="1.5" fill="#fff" opacity="0.85"/>
    <rect x="88" y="108" width="36" height="36" rx="6" stroke="#903950" stroke-width="1.5" fill="#fff" opacity="0.85"/>
    <rect x="132" y="108" width="36" height="36" rx="6" stroke="#903950" stroke-width="1.5" fill="#903950" fill-opacity="0.12"/>
    <rect x="176" y="108" width="36" height="36" rx="6" stroke="#903950" stroke-width="1.5" fill="#fff" opacity="0.85"/>
    <rect x="220" y="108" width="36" height="36" rx="6" stroke="#903950" stroke-width="1.5" fill="#fff" opacity="0.85"/>
    <rect x="264" y="108" width="36" height="36" rx="6" stroke="#903950" stroke-width="1.5" fill="#fff" opacity="0.85"/>
    <rect x="88" y="152" width="36" height="36" rx="6" stroke="#903950" stroke-width="1.5" fill="#fff" opacity="0.85"/>
    <rect x="132" y="152" width="36" height="36" rx="6" stroke="#903950" stroke-width="1.5" fill="#fff" opacity="0.85"/>
    <rect x="176" y="152" width="36" height="36" rx="6" stroke="#903950" stroke-width="1.5" fill="#fff" opacity="0.85"/>
    <rect x="220" y="152" width="36" height="36" rx="6" stroke="#903950" stroke-width="1.5" fill="#903950" fill-opacity="0.18"/>
    <rect x="264" y="152" width="36" height="36" rx="6" stroke="#903950" stroke-width="1.5" fill="#fff" opacity="0.85"/>
  </g>
  <path d="M200 196c0 8-6 14-14 14s-14-6-14-14 6-14 14-14 14 6 14 14z" stroke="#903950" stroke-width="1.8" fill="none" opacity="0.5"/>
  <path d="M186 188l14 16m0-16l-14 16" stroke="#903950" stroke-width="1.8" stroke-linecap="round" opacity="0.55"/>
  <path d="M48 232h304" stroke="url(#line)" stroke-width="1.2" stroke-linecap="round"/>
  <text x="200" y="256" text-anchor="middle" fill="#903950" fill-opacity="0.45" font-family="Georgia, serif" font-size="13" font-style="italic">preview loading&</text>
</svg>
